<svg xmlns="http://www.w3.org/2000/svg" viewBox="0 0 192 192">
  <defs>
    <linearGradient id="bg" x1="0" y1="0" x2="1" y2="1">
      <stop offset="0" stop-color="#0f172a"/>
      <stop offset="1" stop-color="#2563eb"/>
    </linearGradient>
    <linearGradient id="accent" x1="0" y1="0" x2="1" y2="1">
      <stop offset="0" stop-color="#22d3ee"/>
      <stop offset="1" stop-color="#60a5fa"/>
    </linearGradient>
  </defs>
  <rect width="192" height="192" rx="44" fill="url(#bg)"/>
  <path d="M36 56h120a14 14 0 0 1 14 14v52a14 14 0 0 1-14 14h-48l-31 19a5 5 0 0 1-8-4v-15H36a14 14 0 0 1-14-14V70a14 14 0 0 1 14-14z" fill="#ffffff"/>
  <text x="96" y="107" text-anchor="middle" font-family="Inter,Segoe UI,Arial,sans-serif" font-size="42" font-weight="800" fill="#0f172a">NMS</text>
  <circle cx="150" cy="42" r="14" fill="url(#accent)"/>
</svg>
